<?xml version="1.0" encoding="UTF-8" standalone="no"?><diagram id="SNbYQcsz_Utg5FWgZMJS" name="Page-1"><mxGraphModel arrows="1" connect="1" dx="332" dy="241" fold="1" grid="1" gridSize="10" guides="1" math="0" page="1" pageHeight="1100" pageScale="1" pageWidth="850" shadow="0" tooltips="1"><root><mxCell id="0"/><mxCell id="1" parent="0"/><mxCell id="2" parent="1" style="swimlane;fontStyle=0;align=center;verticalAlign=top;childLayout=stackLayout;horizontal=1;startSize=30;horizontalStack=0;resizeParent=1;resizeParentMax=0;resizeLast=0;collapsible=0;marginBottom=0;html=1;" value="galleriesController" vertex="1"><mxGeometry as="geometry" height="164" width="225" x="70" y="80"/></mxCell><mxCell id="3" parent="2" style="text;html=1;strokeColor=none;fillColor=none;align=left;verticalAlign=middle;spacingLeft=4;spacingRight=4;overflow=hidden;rotatable=0;points=[[0,0.5],[1,0.5]];portConstraint=eastwest;" value="" vertex="1"><mxGeometry as="geometry" height="26" width="225" y="26"/></mxCell><mxCell id="4" parent="2" style="line;strokeWidth=1;fillColor=none;align=left;verticalAlign=middle;spacingTop=-1;spacingLeft=3;spacingRight=3;rotatable=0;labelPosition=right;points=[];portConstraint=eastwest;" vertex="1"><mxGeometry as="geometry" height="8" width="225" y="52"/></mxCell><mxCell id="5" parent="2" style="text;html=1;strokeColor=none;fillColor=none;align=left;verticalAlign=middle;spacingLeft=4;spacingRight=4;overflow=hidden;rotatable=0;points=[[0,0.5],[1,0.5]];portConstraint=eastwest;" value="+ getGalleries(): ArrayList&lt;Gallery&gt;&amp;lt;Gallery&amp;gt;" vertex="1"><mxGeometry as="geometry" height="26" width="225" y="60"/></mxCell><mxCell id="6" parent="2" style="text;html=1;strokeColor=none;fillColor=none;align=left;verticalAlign=middle;spacingLeft=4;spacingRight=4;overflow=hidden;rotatable=0;points=[[0,0.5],[1,0.5]];portConstraint=eastwest;" value="+ getOneGallery(@RequestParam(&quot;id&quot;)): Gallery" vertex="1"><mxGeometry as="geometry" height="26" width="225" y="86"/></mxCell><mxCell id="7" parent="2" style="text;html=1;strokeColor=none;fillColor=none;align=left;verticalAlign=middle;spacingLeft=4;spacingRight=4;overflow=hidden;rotatable=0;points=[[0,0.5],[1,0.5]];portConstraint=eastwest;" value="+ addGallery(@RequestBody): Gallery" vertex="1"><mxGeometry as="geometry" height="26" width="225" y="112"/></mxCell><mxCell id="8" parent="2" style="text;html=1;strokeColor=none;fillColor=none;align=left;verticalAlign=middle;spacingLeft=4;spacingRight=4;overflow=hidden;rotatable=0;points=[[0,0.5],[1,0.5]];portConstraint=eastwest;" value="+ removeGallery(@RequestParam(&quot;id&quot;)): void" vertex="1"><mxGeometry as="geometry" height="26" width="225" y="138"/></mxCell><mxCell id="9" parent="1" style="swimlane;fontStyle=0;align=center;verticalAlign=top;childLayout=stackLayout;horizontal=1;startSize=30;horizontalStack=0;resizeParent=1;resizeParentMax=0;resizeLast=0;collapsible=0;marginBottom=0;html=1;" value="galleriesImagesController" vertex="1"><mxGeometry as="geometry" height="112" width="225" x="222" y="80"/></mxCell><mxCell id="10" parent="9" style="text;html=1;strokeColor=none;fillColor=none;align=left;verticalAlign=middle;spacingLeft=4;spacingRight=4;overflow=hidden;rotatable=0;points=[[0,0.5],[1,0.5]];portConstraint=eastwest;" value="- imageDao : imageDescriptorDaoInterface" vertex="1"><mxGeometry as="geometry" height="26" width="225" y="26"/></mxCell><mxCell id="11" parent="9" style="text;html=1;strokeColor=none;fillColor=none;align=left;verticalAlign=middle;spacingLeft=4;spacingRight=4;overflow=hidden;rotatable=0;points=[[0,0.5],[1,0.5]];portConstraint=eastwest;" value="- galleryDao : galleriesDaoInterface" vertex="1"><mxGeometry as="geometry" height="26" width="225" y="52"/></mxCell><mxCell id="12" parent="9" style="line;strokeWidth=1;fillColor=none;align=left;verticalAlign=middle;spacingTop=-1;spacingLeft=3;spacingRight=3;rotatable=0;labelPosition=right;points=[];portConstraint=eastwest;" vertex="1"><mxGeometry as="geometry" height="8" width="225" y="78"/></mxCell><mxCell id="13" parent="9" style="text;html=1;strokeColor=none;fillColor=none;align=left;verticalAlign=middle;spacingLeft=4;spacingRight=4;overflow=hidden;rotatable=0;points=[[0,0.5],[1,0.5]];portConstraint=eastwest;" value="+ addImageToGallery(@RequestBody, HttpServletResponse): void" vertex="1"><mxGeometry as="geometry" height="26" width="225" y="86"/></mxCell><mxCell id="14" parent="1" style="swimlane;fontStyle=0;align=center;verticalAlign=top;childLayout=stackLayout;horizontal=1;startSize=30;horizontalStack=0;resizeParent=1;resizeParentMax=0;resizeLast=0;collapsible=0;marginBottom=0;html=1;" value="imagesController" vertex="1"><mxGeometry as="geometry" height="138" width="225" x="374" y="80"/></mxCell><mxCell id="15" parent="14" style="text;html=1;strokeColor=none;fillColor=none;align=left;verticalAlign=middle;spacingLeft=4;spacingRight=4;overflow=hidden;rotatable=0;points=[[0,0.5],[1,0.5]];portConstraint=eastwest;fontStyle=4;" value="- imageDescriptorDao : imageDescriptorDaoInterface" vertex="1"><mxGeometry as="geometry" height="26" width="225" y="26"/></mxCell><mxCell id="16" parent="14" style="text;html=1;strokeColor=none;fillColor=none;align=left;verticalAlign=middle;spacingLeft=4;spacingRight=4;overflow=hidden;rotatable=0;points=[[0,0.5],[1,0.5]];portConstraint=eastwest;fontStyle=4;" value="- imageDao : imageDaoToLocalFolder" vertex="1"><mxGeometry as="geometry" height="26" width="225" y="52"/></mxCell><mxCell id="17" parent="14" style="line;strokeWidth=1;fillColor=none;align=left;verticalAlign=middle;spacingTop=-1;spacingLeft=3;spacingRight=3;rotatable=0;labelPosition=right;points=[];portConstraint=eastwest;" vertex="1"><mxGeometry as="geometry" height="8" width="225" y="78"/></mxCell><mxCell id="18" parent="14" style="text;html=1;strokeColor=none;fillColor=none;align=left;verticalAlign=middle;spacingLeft=4;spacingRight=4;overflow=hidden;rotatable=0;points=[[0,0.5],[1,0.5]];portConstraint=eastwest;" value="+ index(): ArrayList&lt;ImageDescriptor&gt;&amp;lt;ImageDescriptor&amp;gt;" vertex="1"><mxGeometry as="geometry" height="26" width="225" y="86"/></mxCell><mxCell id="19" parent="14" style="text;html=1;strokeColor=none;fillColor=none;align=left;verticalAlign=middle;spacingLeft=4;spacingRight=4;overflow=hidden;rotatable=0;points=[[0,0.5],[1,0.5]];portConstraint=eastwest;" value="+ getImage(@RequestParam): byte[]" vertex="1"><mxGeometry as="geometry" height="26" width="225" y="112"/></mxCell></root></mxGraphModel></diagram>